<svg xmlns="http://www.w3.org/2000/svg" xmlns:xlink="http://www.w3.org/1999/xlink" viewBox="0 0 139.39 127.25">
<defs>
<style>.cls-1{fill:url(#linear-gradient);}.cls-2{fill:url(#linear-gradient-2);}.cls-3{opacity:0.2;fill:url(#linear-gradient-3);}.cls-4{fill:#363436;}.cls-5{fill:#21409a;}.cls-6{fill:#393839;}</style>
<linearGradient id="linear-gradient" x1="-1731.13" y1="690.28" x2="-1666.22" y2="646.94" gradientTransform="matrix(-1, -0.02, -0.02, 1, -1611.86, -617.92)" gradientUnits="userSpaceOnUse"><stop offset="0" stop-color="#21409a"/><stop offset="0.1" stop-color="#1c3682"/><stop offset="0.31" stop-color="#122354"/><stop offset="0.51" stop-color="#0a142f"/><stop offset="0.7" stop-color="#050915"/><stop offset="0.87" stop-color="#010206"/><stop offset="1"/></linearGradient>

<linearGradient id="linear-gradient-2" x1="-1718.82" y1="-269.59" x2="-1659.72" y2="-309.05" gradientTransform="matrix(-1.07, -0.75, -0.15, 1.12, -1783.27, -876.19)" xlink:href="#linear-gradient"/>

<linearGradient id="linear-gradient-3" x1="-2223.46" y1="98.86" x2="-2092.56" y2="98.86" gradientTransform="matrix(-0.93, -0.38, -0.38, 0.93, -1908.5, -856.04)" gradientUnits="userSpaceOnUse"><stop offset="0" stop-color="#fff"/><stop offset="0.09" stop-color="#f7f7f7"/><stop offset="0.22" stop-color="#e1e1e1"/><stop offset="0.38" stop-color="#bcbcbc"/><stop offset="0.57" stop-color="#8a8a8a"/><stop offset="0.78" stop-color="#494949"/><stop offset="1"/></linearGradient>

</defs>
<g id="blue"><polygon class="cls-1" points="28.15 62.44 33.37 57.2 111.08 103 105.86 108.25 28.15 62.44"/><polygon 

class="cls-2" points="30.85 10.44 37.35 7.36 113.59 102.74 107.09 105.82 30.85 10.44"/><polygon 

class="cls-3" points="7.13 1.72 103.7 97.68 96.28 102.11 -0.3 6.15 7.13 1.72"/><ellipse 

class="cls-4" cx="104.23" cy="102.19" rx="13.38" ry="10.07" transform="translate(-23.47 31.48) rotate(-15.46)"/><ellipse 

class="cls-5" cx="105.36" cy="102.95" rx="9.78" ry="7.36" transform="translate(-23.63 31.8) rotate(-15.46)"/><polygon 

class="cls-6" points="94.5 110.34 123.44 129.88 142.33 113.29 113.4 93.75 94.5 110.34"/></g></svg>