<svg xmlns="http://www.w3.org/2000/svg" xmlns:xlink="http://www.w3.org/1999/xlink" viewBox="0 0 102.98 102.98"><defs><style>.cls-1{opacity:0.2;fill:url(#linear-gradient);}.cls-2{fill:url(#linear-gradient-2);}.cls-3{fill:url(#linear-gradient-3);}.cls-4{fill:#363436;}.cls-5{fill:#faf9d7;}.cls-6{fill:#393839;}</style><linearGradient id="linear-gradient" x1="-2019.82" y1="-2070.18" x2="-1888.65" y2="-2070.18" gradientTransform="matrix(0.8, 0.09, 0.36, -0.87, 2359.47, -1563.08)" gradientUnits="userSpaceOnUse"><stop offset="0" stop-color="#fff"/><stop offset="0.37" stop-color="#fdfdfd"/><stop offset="0.51" stop-color="#f6f6f6"/><stop offset="0.6" stop-color="#ebebeb"/><stop offset="0.68" stop-color="#dadada"/><stop offset="0.75" stop-color="#c4c4c4"/><stop offset="0.8" stop-color="#a8a8a8"/><stop offset="0.86" stop-color="#888"/><stop offset="0.91" stop-color="#626262"/><stop offset="0.95" stop-color="#373737"/><stop offset="0.99" stop-color="#090909"/><stop offset="1"/></linearGradient><linearGradient id="linear-gradient-2" x1="-2625.04" y1="-947.75" x2="-2560.24" y2="-991.02" gradientTransform="matrix(0.92, -0.13, -0.02, -0.96, 2413.01, -1228.94)" gradientUnits="userSpaceOnUse"><stop offset="0" stop-color="#faf9d7"/><stop offset="0.16" stop-color="#bbbaa1"/><stop offset="0.33" stop-color="#838270"/><stop offset="0.48" stop-color="#545448"/><stop offset="0.64" stop-color="#2f2f29"/><stop offset="0.78" stop-color="#151512"/><stop offset="0.9" stop-color="#060505"/><stop offset="1"/></linearGradient><linearGradient id="linear-gradient-3" x1="-2308.9" y1="-2220.19" x2="-2243.6" y2="-2263.79" gradientTransform="matrix(1.05, 0.48, 0.1, -1.03, 2649.31, -1167.99)" xlink:href="#linear-gradient-2"/></defs><g id="Layer_9" data-name="Layer 9"><polygon class="cls-1" points="97.87 99.66 23.18 23.29 29.32 17.02 104 93.39 97.87 99.66"/><polygon class="cls-2" points="89.1 53.02 84.94 59.92 16.6 16.78 20.76 9.89 89.1 53.02"/><polygon class="cls-3" points="86.89 99.93 81.36 104.37 10.34 11.82 15.88 7.38 86.89 99.93"/><ellipse class="cls-4" cx="26.74" cy="21.21" rx="10.19" ry="8.78" transform="translate(-6.06 30.66) rotate(-54.5)"/><ellipse class="cls-5" cx="25.87" cy="20.59" rx="7.45" ry="6.42" transform="translate(-5.92 29.69) rotate(-54.5)"/><rect class="cls-6" x="1.99" y="3.09" width="27.52" height="20.49" transform="translate(10.67 -6.67) rotate(35.5)"/></g></svg>