<svg xmlns="http://www.w3.org/2000/svg" xmlns:xlink="http://www.w3.org/1999/xlink" viewBox="0 0 139.39 139.39"><defs><style>.cls-1{fill:url(#linear-gradient);}.cls-2{fill:url(#linear-gradient-2);}.cls-3{opacity:0.2;fill:url(#linear-gradient-3);}.cls-4{fill:#363436;}.cls-5{fill:#383e94;}.cls-6{fill:#393839;}</style><linearGradient id="linear-gradient" x1="-445.85" y1="730.44" x2="-364.01" y2="675.8" gradientTransform="matrix(1, -0.02, 0.02, 1, 453.65, -611.32)" gradientUnits="userSpaceOnUse"><stop offset="0" stop-color="#383e94"/><stop offset="0.08" stop-color="#313682"/><stop offset="0.29" stop-color="#202354"/><stop offset="0.5" stop-color="#12142f"/><stop offset="0.69" stop-color="#080915"/><stop offset="0.86" stop-color="#020206"/><stop offset="1"/></linearGradient><linearGradient id="linear-gradient-2" x1="-602.17" y1="307.4" x2="-527.66" y2="257.65" gradientTransform="matrix(1.09, -0.77, 0.14, 1.14, 631.38, -686.77)" xlink:href="#linear-gradient"/><linearGradient id="linear-gradient-3" x1="-1059.52" y1="500.12" x2="-894.49" y2="500.12" gradientTransform="matrix(0.88, -0.31, 0.41, 0.89, 735.76, -687.39)" gradientUnits="userSpaceOnUse"><stop offset="0" stop-color="#fff"/><stop offset="0.37" stop-color="#fdfdfd"/><stop offset="0.51" stop-color="#f6f6f6"/><stop offset="0.6" stop-color="#ebebeb"/><stop offset="0.68" stop-color="#dadada"/><stop offset="0.75" stop-color="#c4c4c4"/><stop offset="0.8" stop-color="#a8a8a8"/><stop offset="0.86" stop-color="#888"/><stop offset="0.91" stop-color="#626262"/><stop offset="0.95" stop-color="#373737"/><stop offset="0.99" stop-color="#090909"/><stop offset="1"/></linearGradient></defs><g id="purple_left" data-name="purple left"><polygon class="cls-1" points="119.49 71.41 112.91 64.79 14.93 122.54 21.51 129.16 119.49 71.41"/><polygon class="cls-2" points="115.35 1.72 107.16 -2.15 9.63 120.39 17.83 124.25 115.35 1.72"/><polygon class="cls-3" points="135.53 6.09 23.65 114.32 32.94 120 144.81 11.78 135.53 6.09"/><ellipse class="cls-4" cx="22.3" cy="118" rx="7.66" ry="10.19" transform="translate(-97.38 108.05) rotate(-74.54)"/><ellipse class="cls-5" cx="21.44" cy="118.58" rx="5.6" ry="7.44" transform="translate(-98.56 107.65) rotate(-74.54)"/><polygon class="cls-6" points="29.71 124.2 7.69 139.07 -6.7 126.45 15.33 111.58 29.71 124.2"/></g></svg>