<svg xmlns="http://www.w3.org/2000/svg" xmlns:xlink="http://www.w3.org/1999/xlink" viewBox="0 0 139.39 139.39"><defs><style>.cls-1{fill:url(#linear-gradient);}.cls-2{fill:url(#linear-gradient-2);}.cls-3{opacity:0.2;fill:url(#linear-gradient-3);}.cls-4{fill:#363436;}.cls-5{fill:#383e94;}.cls-6{fill:#393839;}</style><linearGradient id="linear-gradient" x1="-601.33" y1="730.7" x2="-519.05" y2="675.77" gradientTransform="matrix(-1, -0.02, -0.02, 1, -468.19, -614.89)" gradientUnits="userSpaceOnUse"><stop offset="0" stop-color="#383e94"/><stop offset="0.08" stop-color="#313682"/><stop offset="0.29" stop-color="#202354"/><stop offset="0.5" stop-color="#12142f"/><stop offset="0.69" stop-color="#080915"/><stop offset="0.86" stop-color="#020206"/><stop offset="1"/></linearGradient><linearGradient id="linear-gradient-2" x1="-747.61" y1="346.88" x2="-672.7" y2="296.86" gradientTransform="matrix(-1.09, -0.77, -0.14, 1.14, -642.67, -843.15)" xlink:href="#linear-gradient"/><linearGradient id="linear-gradient-3" x1="-1150.78" y1="511.24" x2="-984.86" y2="511.24" gradientTransform="matrix(-0.88, -0.31, -0.41, 0.89, -670.16, -726.24)" gradientUnits="userSpaceOnUse"><stop offset="0" stop-color="#fff"/><stop offset="0.37" stop-color="#fdfdfd"/><stop offset="0.51" stop-color="#f6f6f6"/><stop offset="0.6" stop-color="#ebebeb"/><stop offset="0.68" stop-color="#dadada"/><stop offset="0.75" stop-color="#c4c4c4"/><stop offset="0.8" stop-color="#a8a8a8"/><stop offset="0.86" stop-color="#888"/><stop offset="0.91" stop-color="#626262"/><stop offset="0.95" stop-color="#373737"/><stop offset="0.99" stop-color="#090909"/><stop offset="1"/></linearGradient></defs><g id="purple_right" data-name="purple right"><polygon class="cls-1" points="20.89 70.95 27.5 64.3 126.01 122.36 119.4 129.01 20.89 70.95"/><polygon class="cls-2" points="25.05 0.88 33.29 -3.01 131.34 120.19 123.1 124.08 25.05 0.88"/><polygon class="cls-3" points="4.77 5.28 117.25 114.09 107.91 119.81 -4.57 10.99 4.77 5.28"/><ellipse class="cls-4" cx="118.6" cy="117.79" rx="10.24" ry="7.71" transform="translate(-27.1 35.87) rotate(-15.46)"/><ellipse class="cls-5" cx="119.47" cy="118.38" rx="7.48" ry="5.63" transform="translate(-27.23 36.12) rotate(-15.46)"/><polygon class="cls-6" points="111.16 124.03 133.3 138.98 147.76 126.28 125.62 111.34 111.16 124.03"/></g></svg>