<svg xmlns="http://www.w3.org/2000/svg" xmlns:xlink="http://www.w3.org/1999/xlink" viewBox="0 0 139.39 139.39"><defs><style>.cls-1{fill:url(#linear-gradient);}.cls-2{fill:url(#linear-gradient-2);}.cls-3{opacity:0.2;fill:url(#linear-gradient-3);}.cls-4{fill:#363436;}.cls-5{fill:#bb2b1d;}.cls-6{fill:#393839;}</style><linearGradient id="linear-gradient" x1="-658.05" y1="729.06" x2="-581.07" y2="677.67" gradientTransform="matrix(1, -0.02, 0.02, 1, 657.76, -614.89)" gradientUnits="userSpaceOnUse"><stop offset="0.16" stop-color="#bb2b1d"/><stop offset="0.33" stop-color="#821e14"/><stop offset="0.49" stop-color="#54130d"/><stop offset="0.64" stop-color="#2f0b07"/><stop offset="0.78" stop-color="#150503"/><stop offset="0.9" stop-color="#060101"/><stop offset="1"/></linearGradient><linearGradient id="linear-gradient-2" x1="-808.56" y1="286.65" x2="-738.48" y2="239.86" gradientTransform="matrix(1.09, -0.77, 0.14, 1.14, 850.31, -821.51)" gradientUnits="userSpaceOnUse"><stop offset="0.08" stop-color="#bb2b1d"/><stop offset="0.13" stop-color="#a22519"/><stop offset="0.23" stop-color="#771b13"/><stop offset="0.34" stop-color="#53130d"/><stop offset="0.45" stop-color="#350c08"/><stop offset="0.56" stop-color="#1d0705"/><stop offset="0.69" stop-color="#0d0302"/><stop offset="0.82" stop-color="#030100"/><stop offset="1"/></linearGradient><linearGradient id="linear-gradient-3" x1="-1220.8" y1="460.7" x2="-1065.58" y2="460.7" gradientTransform="matrix(0.93, -0.38, 0.38, 0.93, 961.11, -798.74)" gradientUnits="userSpaceOnUse"><stop offset="0" stop-color="#fff"/><stop offset="0.09" stop-color="#f7f7f7"/><stop offset="0.22" stop-color="#e1e1e1"/><stop offset="0.38" stop-color="#bdbdbd"/><stop offset="0.57" stop-color="#8c8c8c"/><stop offset="0.78" stop-color="#4c4c4c"/><stop offset="1"/></linearGradient></defs><g id="red"><polygon class="cls-1" points="105.66 74.13 99.48 67.91 7.32 122.22 13.51 128.45 105.66 74.13"/><polygon class="cls-2" points="101.77 8.58 94.06 4.94 2.33 120.2 10.04 123.83 101.77 8.58"/><polygon class="cls-3" points="130.04 0.7 15.52 114.49 24.33 119.74 138.84 5.95 130.04 0.7"/><ellipse class="cls-4" cx="17.15" cy="116.17" rx="9.93" ry="13.2" transform="matrix(0.27, -0.96, 0.96, 0.27, -99.39, 101.74)"/><ellipse class="cls-5" cx="16.04" cy="116.92" rx="7.26" ry="9.65" transform="translate(-100.93 101.22) rotate(-74.54)"/><polygon class="cls-6" points="24.82 125.22 -3.72 144.49 -22.36 128.13 6.19 108.86 24.82 125.22"/></g></svg>