<svg xmlns="http://www.w3.org/2000/svg" xmlns:xlink="http://www.w3.org/1999/xlink" viewBox="0 0 139.39 130.49"><defs><style>.cls-1{fill:url(#linear-gradient);}.cls-2{fill:url(#linear-gradient-2);}.cls-3{opacity:0.2;fill:url(#linear-gradient-3);}.cls-4{fill:#363436;}.cls-5{fill:#ccb357;}.cls-6{fill:#393839;}</style><linearGradient id="linear-gradient" x1="-2343.47" y1="697.98" x2="-2268.26" y2="647.76" gradientTransform="matrix(-1, -0.02, -0.02, 1, -2208, -623.96)" gradientUnits="userSpaceOnUse"><stop offset="0" stop-color="#ccb357"/><stop offset="0.05" stop-color="#bba450"/><stop offset="0.24" stop-color="#827238"/><stop offset="0.42" stop-color="#544a24"/><stop offset="0.59" stop-color="#2f2a14"/><stop offset="0.75" stop-color="#151309"/><stop offset="0.89" stop-color="#060502"/><stop offset="1"/></linearGradient><linearGradient id="linear-gradient-2" x1="-2304.23" y1="-425.19" x2="-2235.75" y2="-470.91" gradientTransform="matrix(-1.09, -0.77, -0.14, 1.14, -2439.86, -1162.54)" xlink:href="#linear-gradient"/><linearGradient id="linear-gradient-3" x1="-2815.61" y1="-13.13" x2="-2663.94" y2="-13.13" gradientTransform="matrix(-0.93, -0.38, -0.38, 0.93, -2481.38, -968.59)" gradientUnits="userSpaceOnUse"><stop offset="0" stop-color="#fff"/><stop offset="0.09" stop-color="#f7f7f7"/><stop offset="0.22" stop-color="#e1e1e1"/><stop offset="0.38" stop-color="#bcbcbc"/><stop offset="0.57" stop-color="#8a8a8a"/><stop offset="0.78" stop-color="#494949"/><stop offset="1"/></linearGradient></defs><g id="yellow_right" data-name="yellow right"><polygon class="cls-1" points="31.89 69.38 37.93 63.3 127.98 116.38 121.94 122.46 31.89 69.38"/><polygon class="cls-2" points="35.69 5.33 43.22 1.77 132.86 114.4 125.32 117.95 35.69 5.33"/><polygon class="cls-3" points="8.06 -2.37 119.97 108.82 111.37 113.95 -0.54 2.76 8.06 -2.37"/><ellipse class="cls-4" cx="121.21" cy="112.2" rx="9.36" ry="7.04" transform="translate(-25.52 36.36) rotate(-15.46)"/><ellipse class="cls-5" cx="122" cy="112.74" rx="6.84" ry="5.15" transform="translate(-25.63 36.59) rotate(-15.46)"/><polygon class="cls-6" points="114.41 117.9 134.64 131.57 147.86 119.97 127.62 106.3 114.41 117.9"/></g></svg>