<svg xmlns="http://www.w3.org/2000/svg" xmlns:xlink="http://www.w3.org/1999/xlink" viewBox="0 0 139.39 126.44"><defs><style>.cls-1{fill:url(#linear-gradient);}.cls-2{fill:url(#linear-gradient-2);}.cls-3{opacity:0.2;fill:url(#linear-gradient-3);}.cls-4{fill:#363436;}.cls-5{fill:#ccb357;}.cls-6{fill:#393839;}</style><linearGradient id="linear-gradient" x1="-648.55" y1="725.9" x2="-577.2" y2="678.26" gradientTransform="matrix(1, -0.02, 0.02, 1, 657.96, -620.94)" gradientUnits="userSpaceOnUse"><stop offset="0" stop-color="#ccb357"/><stop offset="0.05" stop-color="#bba450"/><stop offset="0.24" stop-color="#827238"/><stop offset="0.42" stop-color="#544a24"/><stop offset="0.59" stop-color="#2f2a14"/><stop offset="0.75" stop-color="#151309"/><stop offset="0.89" stop-color="#060502"/><stop offset="1"/></linearGradient><linearGradient id="linear-gradient-2" x1="-846.56" y1="452.14" x2="-781.61" y2="408.77" gradientTransform="matrix(1.09, -0.77, 0.14, 1.14, 877.58, -1047.9)" xlink:href="#linear-gradient"/><linearGradient id="linear-gradient-3" x1="-1235.8" y1="570.29" x2="-1091.93" y2="570.29" gradientTransform="matrix(0.93, -0.38, 0.38, 0.93, 943.84, -912.49)" gradientUnits="userSpaceOnUse"><stop offset="0" stop-color="#fff"/><stop offset="0.09" stop-color="#f7f7f7"/><stop offset="0.22" stop-color="#e1e1e1"/><stop offset="0.38" stop-color="#bdbdbd"/><stop offset="0.57" stop-color="#8c8c8c"/><stop offset="0.78" stop-color="#4c4c4c"/><stop offset="1"/></linearGradient></defs><g id="yellow_left" data-name="yellow left"><polygon class="cls-1" points="108.64 68.62 102.91 62.86 17.49 113.2 23.22 118.97 108.64 68.62"/><polygon class="cls-2" points="105.03 7.86 97.89 4.49 12.87 111.32 20.01 114.69 105.03 7.86"/><polygon class="cls-3" points="131.24 0.56 25.09 106.03 33.25 110.9 139.4 5.43 131.24 0.56"/><ellipse class="cls-4" cx="23.91" cy="109.24" rx="6.68" ry="8.88" transform="translate(-87.75 103.18) rotate(-74.54)"/><ellipse class="cls-5" cx="23.17" cy="109.75" rx="4.88" ry="6.49" transform="translate(-88.79 102.83) rotate(-74.54)"/><polygon class="cls-6" points="30.37 114.65 11.17 127.61 -1.37 116.61 17.83 103.64 30.37 114.65"/></g></svg>