<svg xmlns="http://www.w3.org/2000/svg" xmlns:xlink="http://www.w3.org/1999/xlink" viewBox="0 0 288 288"><defs><style>.cls-1{fill:url(#linear-gradient);}.cls-2{fill:url(#linear-gradient-2);}.cls-3{opacity:0.2;fill:url(#linear-gradient-3);}.cls-4{fill:#363436;}.cls-5{fill:#21409a;}.cls-6{fill:#393839;}</style><linearGradient id="linear-gradient" x1="-2481.85" y1="818.94" x2="-2347.92" y2="729.52" gradientTransform="matrix(-1, -0.02, -0.02, 1, -2250.49, -624.39)" gradientUnits="userSpaceOnUse"><stop offset="0" stop-color="#21409a"/><stop offset="0.1" stop-color="#1c3682"/><stop offset="0.31" stop-color="#122354"/><stop offset="0.51" stop-color="#0a142f"/><stop offset="0.7" stop-color="#050915"/><stop offset="0.87" stop-color="#010206"/><stop offset="1"/></linearGradient><linearGradient id="linear-gradient-2" x1="-2431.65" y1="-427.94" x2="-2309.72" y2="-509.35" gradientTransform="matrix(-1.07, -0.75, -0.15, 1.12, -2464.68, -1095.64)" xlink:href="#linear-gradient"/><linearGradient id="linear-gradient-3" x1="-3038.93" y1="20.42" x2="-2768.86" y2="20.42" gradientTransform="matrix(-0.93, -0.38, -0.38, 0.93, -2575.88, -987.15)" gradientUnits="userSpaceOnUse"><stop offset="0" stop-color="#fff"/><stop offset="0.09" stop-color="#f7f7f7"/><stop offset="0.22" stop-color="#e1e1e1"/><stop offset="0.38" stop-color="#bcbcbc"/><stop offset="0.57" stop-color="#8a8a8a"/><stop offset="0.78" stop-color="#494949"/><stop offset="1"/></linearGradient></defs><g id="blue"><polygon class="cls-1" points="55.85 152.09 66.62 141.27 226.96 235.77 216.2 246.6 55.85 152.09"/><polygon class="cls-2" points="61.43 44.8 74.83 38.45 232.13 235.23 218.73 241.59 61.43 44.8"/><polygon class="cls-3" points="12.48 26.81 211.73 224.8 196.42 233.94 -2.83 35.95 12.48 26.81"/><ellipse class="cls-4" cx="212.83" cy="234.11" rx="27.61" ry="20.78" transform="translate(-54.7 65.19) rotate(-15.46)"/><ellipse class="cls-5" cx="215.15" cy="235.68" rx="20.18" ry="15.19" transform="matrix(0.96, -0.27, 0.27, 0.96, -55.03, 65.87)"/><polygon class="cls-6" points="192.75 250.92 252.45 291.23 291.44 257 231.74 216.69 192.75 250.92"/></g></svg>