<svg xmlns="http://www.w3.org/2000/svg" xmlns:xlink="http://www.w3.org/1999/xlink" viewBox="0 0 288 288"><defs><style>.cls-1{fill:url(#linear-gradient);}.cls-2{fill:url(#linear-gradient-2);}.cls-3{opacity:0.2;fill:url(#linear-gradient-3);}.cls-4{fill:#363436;}.cls-5{fill:#383e94;}.cls-6{fill:#393839;}</style><linearGradient id="linear-gradient" x1="-1043.11" y1="863.79" x2="-880.57" y2="755.26" gradientTransform="matrix(-1, -0.02, -0.02, 1, -789.6, -618.15)" gradientUnits="userSpaceOnUse"><stop offset="0" stop-color="#383e94"/><stop offset="0.08" stop-color="#313682"/><stop offset="0.29" stop-color="#202354"/><stop offset="0.5" stop-color="#12142f"/><stop offset="0.69" stop-color="#080915"/><stop offset="0.86" stop-color="#020206"/><stop offset="1"/></linearGradient><linearGradient id="linear-gradient-2" x1="-1158.93" y1="296.51" x2="-1010.95" y2="197.71" gradientTransform="matrix(-1.09, -0.77, -0.14, 1.14, -977.81, -966.16)" xlink:href="#linear-gradient"/><linearGradient id="linear-gradient-3" x1="-1640.07" y1="508.34" x2="-1312.31" y2="508.34" gradientTransform="matrix(-0.88, -0.31, -0.41, 0.89, -971.57, -776.61)" gradientUnits="userSpaceOnUse"><stop offset="0" stop-color="#fff"/><stop offset="0.37" stop-color="#fdfdfd"/><stop offset="0.51" stop-color="#f6f6f6"/><stop offset="0.6" stop-color="#ebebeb"/><stop offset="0.68" stop-color="#dadada"/><stop offset="0.75" stop-color="#c4c4c4"/><stop offset="0.8" stop-color="#a8a8a8"/><stop offset="0.86" stop-color="#888"/><stop offset="0.91" stop-color="#626262"/><stop offset="0.95" stop-color="#373737"/><stop offset="0.99" stop-color="#090909"/><stop offset="1"/></linearGradient></defs><g id="purple_right" data-name="purple right"><polygon class="cls-1" points="43.57 154.2 56.63 141.06 251.23 255.75 238.17 268.89 43.57 154.2"/><polygon class="cls-2" points="51.79 15.78 68.07 8.1 261.76 251.47 245.48 259.15 51.79 15.78"/><polygon class="cls-3" points="11.72 24.47 233.91 239.43 215.47 250.71 -6.72 35.76 11.72 24.47"/><ellipse class="cls-4" cx="236.6" cy="246.74" rx="20.23" ry="15.22" transform="translate(-57.2 71.98) rotate(-15.46)"/><ellipse class="cls-5" cx="238.3" cy="247.89" rx="14.78" ry="11.12" transform="translate(-57.45 72.48) rotate(-15.46)"/><polygon class="cls-6" points="221.89 259.05 265.62 288.58 294.18 263.51 250.45 233.98 221.89 259.05"/></g></svg>