<svg xmlns="http://www.w3.org/2000/svg" xmlns:xlink="http://www.w3.org/1999/xlink" viewBox="0 0 288 288"><defs><style>.cls-1{fill:url(#linear-gradient);}.cls-2{fill:url(#linear-gradient-2);}.cls-3{opacity:0.2;fill:url(#linear-gradient-3);}.cls-4{fill:#363436;}.cls-5{fill:#383e94;}.cls-6{fill:#393839;}</style><linearGradient id="linear-gradient" x1="-421.08" y1="870.15" x2="-258.53" y2="761.63" gradientTransform="matrix(1, -0.02, 0.02, 1, 456.82, -611.9)" gradientUnits="userSpaceOnUse"><stop offset="0" stop-color="#383e94"/><stop offset="0.08" stop-color="#313682"/><stop offset="0.29" stop-color="#202354"/><stop offset="0.5" stop-color="#12142f"/><stop offset="0.69" stop-color="#080915"/><stop offset="0.86" stop-color="#020206"/><stop offset="1"/></linearGradient><linearGradient id="linear-gradient-2" x1="-611.92" y1="418.03" x2="-463.94" y2="319.22" gradientTransform="matrix(1.09, -0.77, 0.14, 1.14, 656.05, -685.71)" xlink:href="#linear-gradient"/><linearGradient id="linear-gradient-3" x1="-1155.68" y1="607.96" x2="-827.92" y2="607.96" gradientTransform="matrix(0.88, -0.31, 0.41, 0.89, 796.22, -713.26)" gradientUnits="userSpaceOnUse"><stop offset="0" stop-color="#fff"/><stop offset="0.37" stop-color="#fdfdfd"/><stop offset="0.51" stop-color="#f6f6f6"/><stop offset="0.6" stop-color="#ebebeb"/><stop offset="0.68" stop-color="#dadada"/><stop offset="0.75" stop-color="#c4c4c4"/><stop offset="0.8" stop-color="#a8a8a8"/><stop offset="0.86" stop-color="#888"/><stop offset="0.91" stop-color="#626262"/><stop offset="0.95" stop-color="#373737"/><stop offset="0.99" stop-color="#090909"/><stop offset="1"/></linearGradient></defs><g id="purple_left" data-name="purple left"><polygon class="cls-1" points="245.7 154.2 232.63 141.06 38.03 255.75 51.1 268.89 245.7 154.2"/><polygon class="cls-2" points="237.47 15.78 221.2 8.1 27.51 251.47 43.78 259.15 237.47 15.78"/><polygon class="cls-3" points="277.55 24.47 55.36 239.43 73.79 250.71 295.98 35.76 277.55 24.47"/><ellipse class="cls-4" cx="52.67" cy="246.74" rx="15.22" ry="20.23" transform="translate(-199.18 231.74) rotate(-74.54)"/><ellipse class="cls-5" cx="50.97" cy="247.89" rx="11.12" ry="14.78" transform="translate(-201.53 230.94) rotate(-74.54)"/><polygon class="cls-6" points="67.38 259.05 23.64 288.58 -4.92 263.51 38.82 233.98 67.38 259.05"/></g></svg>