<svg xmlns="http://www.w3.org/2000/svg" xmlns:xlink="http://www.w3.org/1999/xlink" viewBox="0 0 288 288"><defs><style>.cls-1{fill:url(#linear-gradient);}.cls-2{fill:url(#linear-gradient-2);}.cls-3{opacity:0.2;fill:url(#linear-gradient-3);}.cls-4{fill:#363436;}.cls-5{fill:#bb2b1d;}.cls-6{fill:#393839;}</style><linearGradient id="linear-gradient" x1="-625.17" y1="866.57" x2="-481.08" y2="770.37" gradientTransform="matrix(1, -0.02, 0.02, 1, 660.94, -618.15)" gradientUnits="userSpaceOnUse"><stop offset="0.16" stop-color="#bb2b1d"/><stop offset="0.33" stop-color="#821e14"/><stop offset="0.49" stop-color="#54130d"/><stop offset="0.64" stop-color="#2f0b07"/><stop offset="0.78" stop-color="#150503"/><stop offset="0.9" stop-color="#060101"/><stop offset="1"/></linearGradient><linearGradient id="linear-gradient-2" x1="-831.39" y1="473.47" x2="-700.21" y2="385.88" gradientTransform="matrix(1.09, -0.77, 0.14, 1.14, 886.49, -921.43)" gradientUnits="userSpaceOnUse"><stop offset="0.08" stop-color="#bb2b1d"/><stop offset="0.13" stop-color="#a22519"/><stop offset="0.23" stop-color="#771b13"/><stop offset="0.34" stop-color="#53130d"/><stop offset="0.45" stop-color="#350c08"/><stop offset="0.56" stop-color="#1d0705"/><stop offset="0.69" stop-color="#0d0302"/><stop offset="0.82" stop-color="#030100"/><stop offset="1"/></linearGradient><linearGradient id="linear-gradient-3" x1="-1302.09" y1="613.84" x2="-1011.54" y2="613.84" gradientTransform="matrix(0.93, -0.38, 0.38, 0.93, 1009.15, -870.63)" gradientUnits="userSpaceOnUse"><stop offset="0" stop-color="#fff"/><stop offset="0.09" stop-color="#f7f7f7"/><stop offset="0.22" stop-color="#e1e1e1"/><stop offset="0.38" stop-color="#bdbdbd"/><stop offset="0.57" stop-color="#8c8c8c"/><stop offset="0.78" stop-color="#4c4c4c"/><stop offset="1"/></linearGradient></defs><g id="red"><polygon class="cls-1" points="223.87 161.28 212.29 149.63 39.78 251.3 51.36 262.94 223.87 161.28"/><polygon class="cls-2" points="216.58 38.57 202.15 31.76 30.45 247.51 44.88 254.31 216.58 38.57"/><polygon class="cls-3" points="269.5 23.82 55.14 236.83 71.61 246.66 285.98 33.65 269.5 23.82"/><ellipse class="cls-4" cx="58.18" cy="239.97" rx="18.6" ry="24.71" transform="translate(-188.62 232.09) rotate(-74.54)"/><ellipse class="cls-5" cx="56.11" cy="241.38" rx="13.59" ry="18.06" transform="translate(-191.49 231.12) rotate(-74.54)"/><polygon class="cls-6" points="76.15 255.02 22.73 291.09 -12.16 260.46 41.26 224.39 76.15 255.02"/></g></svg>