<svg xmlns="http://www.w3.org/2000/svg" xmlns:xlink="http://www.w3.org/1999/xlink" viewBox="0 0 288 288"><defs><style>.cls-1{fill:url(#linear-gradient);}.cls-2{fill:url(#linear-gradient-2);}.cls-3{opacity:0.2;fill:url(#linear-gradient-3);}.cls-4{fill:#363436;}.cls-5{fill:#ccb357;}.cls-6{fill:#393839;}</style><linearGradient id="linear-gradient" x1="-3753.27" y1="832.26" x2="-3598.08" y2="728.64" gradientTransform="matrix(-1, -0.02, -0.02, 1, -3482.37, -636.89)" gradientUnits="userSpaceOnUse"><stop offset="0" stop-color="#ccb357"/><stop offset="0.05" stop-color="#bba450"/><stop offset="0.24" stop-color="#827238"/><stop offset="0.42" stop-color="#544a24"/><stop offset="0.59" stop-color="#2f2a14"/><stop offset="0.75" stop-color="#151309"/><stop offset="0.89" stop-color="#060502"/><stop offset="1"/></linearGradient><linearGradient id="linear-gradient-2" x1="-3622.23" y1="-774.25" x2="-3480.94" y2="-868.58" gradientTransform="matrix(-1.09, -0.77, -0.14, 1.14, -3786.89, -1628.6)" xlink:href="#linear-gradient"/><linearGradient id="linear-gradient-3" x1="-4269.7" y1="-216.06" x2="-3956.76" y2="-216.06" gradientTransform="matrix(-0.93, -0.38, -0.38, 0.93, -3762.09, -1220.21)" gradientUnits="userSpaceOnUse"><stop offset="0" stop-color="#fff"/><stop offset="0.09" stop-color="#f7f7f7"/><stop offset="0.22" stop-color="#e1e1e1"/><stop offset="0.38" stop-color="#bcbcbc"/><stop offset="0.57" stop-color="#8a8a8a"/><stop offset="0.78" stop-color="#494949"/><stop offset="1"/></linearGradient></defs><g id="yellow_right" data-name="yellow right"><polygon class="cls-1" points="69.73 163.99 82.2 151.45 268 260.95 255.53 273.5 69.73 163.99"/><polygon class="cls-2" points="77.58 31.83 93.12 24.5 278.05 256.87 262.51 264.2 77.58 31.83"/><polygon class="cls-3" points="20.58 15.95 251.46 245.37 233.71 255.96 2.83 26.54 20.58 15.95"/><ellipse class="cls-4" cx="254.03" cy="252.35" rx="19.31" ry="14.53" transform="translate(-58.07 76.83) rotate(-15.46)"/><ellipse class="cls-5" cx="255.65" cy="253.44" rx="14.12" ry="10.62" transform="translate(-58.3 77.3) rotate(-15.46)"/><polygon class="cls-6" points="239.98 264.11 281.74 292.3 309.01 268.36 267.25 240.16 239.98 264.11"/></g></svg>