<svg xmlns="http://www.w3.org/2000/svg" xmlns:xlink="http://www.w3.org/1999/xlink" viewBox="0 0 288 288"><defs><style>.cls-1{fill:url(#linear-gradient);}.cls-2{fill:url(#linear-gradient-2);}.cls-3{opacity:0.2;fill:url(#linear-gradient-3);}.cls-4{fill:#363436;}.cls-5{fill:#ccb357;}.cls-6{fill:#393839;}</style><linearGradient id="linear-gradient" x1="-631.61" y1="891.35" x2="-484.4" y2="793.06" gradientTransform="matrix(1, -0.02, 0.02, 1, 660.81, -630.64)" gradientUnits="userSpaceOnUse"><stop offset="0" stop-color="#ccb357"/><stop offset="0.05" stop-color="#bba450"/><stop offset="0.24" stop-color="#827238"/><stop offset="0.42" stop-color="#544a24"/><stop offset="0.59" stop-color="#2f2a14"/><stop offset="0.75" stop-color="#151309"/><stop offset="0.89" stop-color="#060502"/><stop offset="1"/></linearGradient><linearGradient id="linear-gradient-2" x1="-932.49" y1="830.75" x2="-798.47" y2="741.27" gradientTransform="matrix(1.09, -0.77, 0.14, 1.14, 939.01, -1392.88)" xlink:href="#linear-gradient"/><linearGradient id="linear-gradient-3" x1="-1357.95" y1="854.52" x2="-1061.11" y2="854.52" gradientTransform="matrix(0.93, -0.38, 0.38, 0.93, 963.36, -1103.68)" gradientUnits="userSpaceOnUse"><stop offset="0" stop-color="#fff"/><stop offset="0.09" stop-color="#f7f7f7"/><stop offset="0.22" stop-color="#e1e1e1"/><stop offset="0.38" stop-color="#bdbdbd"/><stop offset="0.57" stop-color="#8c8c8c"/><stop offset="0.78" stop-color="#4c4c4c"/><stop offset="1"/></linearGradient></defs><g id="yellow_left" data-name="yellow left"><polygon class="cls-1" points="221.49 171.53 209.66 159.63 33.42 263.5 45.25 275.4 221.49 171.53"/><polygon class="cls-2" points="214.04 46.16 199.3 39.21 23.88 259.62 38.62 266.58 214.04 46.16"/><polygon class="cls-3" points="268.11 31.1 49.1 248.71 65.94 258.75 284.94 41.14 268.11 31.1"/><ellipse class="cls-4" cx="46.67" cy="255.33" rx="13.79" ry="18.32" transform="translate(-211.86 232.27) rotate(-74.54)"/><ellipse class="cls-5" cx="45.13" cy="256.37" rx="10.08" ry="13.39" transform="translate(-214 231.54) rotate(-74.54)"/><polygon class="cls-6" points="59.99 266.49 20.38 293.23 -5.48 270.52 34.13 243.78 59.99 266.49"/></g></svg>